<svg xmlns="http://www.w3.org/2000/svg" width="23" height="23" viewBox="0 0 23 23" fill="none">
<path d="M12.1092 22.3815C11.7172 22.5328 11.2828 22.5328 10.8908 22.3815C7.82886 21.181 5.19976 19.0856 3.34626 16.3688C1.49278 13.6519 0.500907 10.4396 0.5 7.15077V2.19231C0.5 1.74347 0.678296 1.31304 0.995665 0.995665C1.31304 0.678296 1.74347 0.5 2.19231 0.5H20.8077C21.2565 0.5 21.687 0.678296 22.0043 0.995665C22.3216 1.31304 22.5 1.74347 22.5 2.19231V7.13384C22.5025 10.4256 21.5122 13.6416 19.6584 16.3618C17.8049 19.082 15.1738 21.1798 12.1092 22.3815Z" stroke="#454545" stroke-linecap="round" stroke-linejoin="round"/>
<path d="M4.4541 17.8131C5.97076 15.5377 8.56032 14.0386 11.5 14.0386C14.4397 14.0386 17.0292 15.5377 18.5459 17.8131" fill="#454545"/>
<path d="M4.4541 17.8131C5.97076 15.5377 8.56032 14.0386 11.5 14.0386C14.4397 14.0386 17.0292 15.5377 18.5459 17.8131C16.8639 19.3754 13.1001 22.5 11.5 22.5C9.89996 22.5 6.13605 19.3754 4.4541 17.8131Z" stroke="#454545" stroke-linecap="round" stroke-linejoin="round"/>
<path d="M11.5001 11.5001C13.603 11.5001 15.3078 9.79539 15.3078 7.69246C15.3078 5.58953 13.603 3.88477 11.5001 3.88477C9.39715 3.88477 7.69238 5.58953 7.69238 7.69246C7.69238 9.79539 9.39715 11.5001 11.5001 11.5001Z" fill="#454545" stroke="#454545" stroke-linecap="round" stroke-linejoin="round"/>
<path d="M11.25 22.5C10.4786 22.5 6.42857 19.1667 4.5 17.5H18C16.0714 19.1667 12.0214 22.5 11.25 22.5Z" fill="#454545" stroke="#454545"/>
</svg>