<svg xmlns="http://www.w3.org/2000/svg" width="140" height="101" viewBox="0 0 140 101" fill="none">
  <circle cx="70" cy="50.6104" r="50" fill="#759CFF"/>
  <path d="M61 57.1812C61 57.1812 64 60.6103 70 60.6103C76 60.6103 79 57.1812 79 57.1812" stroke="black" stroke-width="2" stroke-linecap="round"/>
  <ellipse cx="85.9994" cy="53.9974" rx="1.85185" ry="1.85185" fill="white"/>
  <circle cx="93.9996" cy="53.9978" r="1.85185" fill="white"/>
  <circle cx="90.0011" cy="57.9959" r="1.85185" fill="white"/>
  <ellipse cx="46.0005" cy="53.9969" rx="1.85185" ry="1.85185" fill="white"/>
  <ellipse cx="54.0007" cy="53.9974" rx="1.85185" ry="1.85185" fill="white"/>
  <ellipse cx="50.0022" cy="57.9954" rx="1.85185" ry="1.85185" fill="white"/>
  <path d="M43.082 30.9454C43.082 30.9454 47.9758 29.5134 52.9568 29.0777C57.9378 28.6419 63.0059 29.2023 63.0059 29.2023" stroke="black" stroke-width="2" stroke-linecap="round"/>
  <path d="M76.9943 29.2022C76.9943 29.2022 82.0624 28.6418 87.0434 29.0776C92.0243 29.5134 96.9182 30.9454 96.9182 30.9454" stroke="black" stroke-width="2" stroke-linecap="round"/>
  <path d="M45.7142 40.6104C45.7142 40.6104 48.2857 43.4675 54.2857 43.4675C60.2857 43.4675 62.8571 40.6104 62.8571 40.6104" stroke="black" stroke-width="2" stroke-linecap="round"/>
  <path d="M77.1428 40.6104C77.1428 40.6104 79.7142 43.4675 85.7143 43.4675C91.7143 43.4675 94.2857 40.6104 94.2857 40.6104" stroke="black" stroke-width="2" stroke-linecap="round"/>
  <path fill-rule="evenodd" clip-rule="evenodd" d="M120 50.9616C120 55.019 119.517 58.9636 118.605 62.7409C106.026 67.3289 88.8878 70.1524 69.9997 70.1524C51.112 70.1524 33.9741 67.329 21.3955 62.7411C20.4833 58.9637 20 55.0191 20 50.9616C20 47.9161 20.2723 44.9343 20.7938 42.0391C7.95523 46.7006 0 53.1731 0 60.3282V71.7568C0 85.9584 31.3401 97.471 70 97.471C108.66 97.471 140 85.9584 140 71.7568V60.3282C140 53.1731 132.045 46.7006 119.206 42.0391C119.728 44.9343 120 47.9161 120 50.9616Z" fill="#E4E7EF"/>
  <path fill-rule="evenodd" clip-rule="evenodd" d="M97.0755 95.4621C107.532 93.8495 116.697 91.3312 123.845 88.1743C122.584 83.4941 120.843 78.3131 118.626 74.5803C116.749 71.4215 113.845 68.1473 110.807 65.1847C105.646 66.5856 99.9574 67.7278 93.8752 68.5608C94.9361 72.4758 95.8959 76.6668 96.3135 80.2284C96.8535 84.8342 97.0403 90.4743 97.0755 95.4621ZM43.6866 80.2284C43.1465 84.8342 42.9598 90.4743 42.9246 95.4621C32.4735 93.8503 23.3119 91.3337 16.1663 88.1791C17.4244 83.4964 19.1618 78.3111 21.3784 74.575C23.2515 71.4178 26.1495 68.1447 29.1834 65.1821C34.347 66.5843 40.0388 67.7274 46.1248 68.5609C45.064 72.4759 44.1042 76.6668 43.6866 80.2284Z" fill="#FF7A7C"/>
</svg>