<svg xmlns="http://www.w3.org/2000/svg" width="100" height="101" viewBox="0 0 100 101" fill="none">
  <circle cx="50" cy="50.5" r="50" fill="#7A64FF"/>
  <path d="M40.7407 68.4995C40.7407 68.4995 43.7407 70.4995 49.7407 70.4995C55.7407 70.4995 58.7407 68.4995 58.7407 68.4995" stroke="black" stroke-width="2" stroke-linecap="round"/>
  <ellipse cx="64.073" cy="65.3152" rx="1.85185" ry="1.85185" fill="white"/>
  <circle cx="72.0732" cy="65.3157" r="1.85185" fill="white"/>
  <ellipse cx="68.0747" cy="69.3138" rx="1.85185" ry="1.85185" fill="white"/>
  <ellipse cx="24.0741" cy="65.3147" rx="1.85185" ry="1.85185" fill="white"/>
  <ellipse cx="32.0743" cy="65.3152" rx="1.85185" ry="1.85185" fill="white"/>
  <ellipse cx="28.0758" cy="69.3133" rx="1.85185" ry="1.85185" fill="white"/>
  <ellipse cx="65.48" cy="50.2402" rx="9.25926" ry="9" fill="white"/>
  <ellipse cx="65.4821" cy="50.2402" rx="5.14403" ry="5" fill="black"/>
  <ellipse cx="33.479" cy="50.2402" rx="9.25926" ry="9" fill="white"/>
  <ellipse cx="33.4769" cy="50.2402" rx="5.14403" ry="5" fill="black"/>
  <path d="M22.2222 38.5371C22.2222 38.5371 27.2222 37.5371 32.2222 37.5371C37.2222 37.5371 42.2222 38.5371 42.2222 38.5371" stroke="black" stroke-width="2" stroke-linecap="round"/>
  <path d="M56.2216 38.5366C56.2216 38.5366 61.2216 37.5366 66.2216 37.5366C71.2216 37.5366 76.2216 38.5366 76.2216 38.5366" stroke="black" stroke-width="2" stroke-linecap="round"/>
</svg>