<svg xmlns="http://www.w3.org/2000/svg" width="23" height="23" viewBox="0 0 23 23" fill="none">
  <path d="M2.19231 3.03809C1.74347 3.03809 1.31304 3.21639 0.995665 3.53375C0.678296 3.85112 0.5 4.28156 0.5 4.73039V20.8073C0.5 21.2561 0.678296 21.6866 0.995665 22.0039C1.31304 22.3213 1.74347 22.4996 2.19231 22.4996H20.8077C21.2565 22.4996 21.687 22.3213 22.0043 22.0039C22.3216 21.6866 22.5 21.2561 22.5 20.8073V4.73039C22.5 4.28156 22.3216 3.85112 22.0043 3.53375C21.687 3.21639 21.2565 3.03809 20.8077 3.03809H17.4231" stroke="#454545" stroke-linecap="round" stroke-linejoin="round"/>
  <path d="M0.5 8.96143H22.5" stroke="#454545" stroke-linecap="round" stroke-linejoin="round"/>
  <path d="M5.57697 0.5V5.57692" stroke="#454545" stroke-linecap="round" stroke-linejoin="round"/>
  <path d="M17.4231 0.5V5.57692" stroke="#454545" stroke-linecap="round" stroke-linejoin="round"/>
  <path d="M5.57697 3.03809H14.0385" stroke="#454545" stroke-linecap="round" stroke-linejoin="round"/>
  <path d="M0.5 4.5C0.5 3.39543 1.39543 2.5 2.5 2.5H20.5C21.6046 2.5 22.5 3.39543 22.5 4.5V9.5H0.5V4.5Z" fill="#454545"/>
</svg>