<svg xmlns="http://www.w3.org/2000/svg" width="49" height="36" viewBox="0 0 49 36" fill="none">
  <circle cx="24.5" cy="18" r="17.5" fill="#759CFF"/>
  <path d="M21.35 20.2998C21.35 20.2998 22.4 21.5 24.5 21.5C26.6 21.5 27.65 20.2998 27.65 20.2998" stroke="black" stroke-linecap="round"/>
  <ellipse cx="30.0998" cy="19.1853" rx="0.648149" ry="0.648148" fill="white"/>
  <circle cx="32.8999" cy="19.1853" r="0.648149" fill="white"/>
  <circle cx="31.5004" cy="20.5847" r="0.648149" fill="white"/>
  <ellipse cx="16.1002" cy="19.1853" rx="0.648148" ry="0.648148" fill="white"/>
  <ellipse cx="18.9002" cy="19.1853" rx="0.648148" ry="0.648148" fill="white"/>
  <ellipse cx="17.5008" cy="20.5847" rx="0.648148" ry="0.648149" fill="white"/>
  <path d="M15.0787 11.1172C15.0787 11.1172 16.7916 10.616 18.5349 10.4635C20.2782 10.311 22.0521 10.5071 22.0521 10.5071" stroke="black" stroke-linecap="round"/>
  <path d="M26.948 10.5074C26.948 10.5074 28.7218 10.3112 30.4652 10.4637C32.2085 10.6163 33.9213 11.1174 33.9213 11.1174" stroke="black" stroke-linecap="round"/>
  <path d="M16 14.5C16 14.5 16.9 15.5 19 15.5C21.1 15.5 22 14.5 22 14.5" stroke="black" stroke-linecap="round"/>
  <path d="M27 14.5C27 14.5 27.9 15.5 30 15.5C32.1 15.5 33 14.5 33 14.5" stroke="black" stroke-linecap="round"/>
  <path fill-rule="evenodd" clip-rule="evenodd" d="M42 18.1229C42 19.543 41.8308 20.9236 41.5116 22.2456C37.1091 23.8515 31.1107 24.8397 24.4999 24.8397C17.8892 24.8397 11.8909 23.8515 7.48843 22.2457C7.16916 20.9236 7 19.543 7 18.1229C7 17.057 7.09529 16.0133 7.27783 15C2.78433 16.6315 0 18.8969 0 21.4012V25.4012C0 30.3718 10.969 34.4012 24.5 34.4012C38.031 34.4012 49 30.3718 49 25.4012V21.4012C49 18.8969 46.2157 16.6315 41.7222 15C41.9047 16.0133 42 17.057 42 18.1229Z" fill="#E4E7EF"/>
  <path fill-rule="evenodd" clip-rule="evenodd" d="M33.9764 33.6981C37.6362 33.1337 40.8441 32.2523 43.3456 31.1474C42.9043 29.5093 42.2952 27.696 41.519 26.3895C40.8621 25.2839 39.8459 24.1379 38.7823 23.101C36.976 23.5913 34.9851 23.9911 32.8563 24.2826C33.2276 25.6529 33.5636 27.1197 33.7097 28.3663C33.8987 29.9783 33.9641 31.9524 33.9764 33.6981ZM15.2903 28.3663C15.1013 29.9783 15.0359 31.9524 15.0236 33.6981C11.3657 33.134 8.15919 32.2532 5.6582 31.1491C6.09857 29.5101 6.70665 27.6952 7.48243 26.3876C8.13803 25.2826 9.15235 24.137 10.2142 23.1001C12.0214 23.5908 14.0136 23.9909 16.1437 24.2827C15.7724 25.6529 15.4365 27.1197 15.2903 28.3663Z" fill="#FF7A7C"/>
</svg>
