<svg xmlns="http://www.w3.org/2000/svg" width="25" height="25" viewBox="0 0 25 25" fill="none">
  <path fill-rule="evenodd" clip-rule="evenodd" d="M10.278 21.5H14.722C17.843 21.5 19.404 21.5 20.525 20.765C21.0087 20.448 21.4253 20.0389 21.751 19.561C22.5 18.461 22.5 16.928 22.5 13.864C22.5 10.799 22.5 9.26705 21.751 8.16705C21.4253 7.68916 21.0087 7.28005 20.525 6.96305C19.805 6.49005 18.903 6.32105 17.522 6.26105C16.863 6.26105 16.296 5.77105 16.167 5.13605C16.0684 4.67092 15.8123 4.25408 15.4418 3.956C15.0714 3.65791 14.6095 3.49686 14.134 3.50005H10.866C9.878 3.50005 9.027 4.18505 8.833 5.13605C8.704 5.77105 8.137 6.26105 7.478 6.26105C6.098 6.32105 5.196 6.49105 4.475 6.96305C3.99162 7.28011 3.57537 7.68922 3.25 8.16705C2.5 9.26705 2.5 10.799 2.5 13.864C2.5 16.928 2.5 18.46 3.249 19.561C3.573 20.037 3.989 20.446 4.475 20.765C5.596 21.5 7.157 21.5 10.278 21.5ZM12.5 9.77305C10.199 9.77305 8.333 11.604 8.333 13.863C8.333 16.123 10.199 17.955 12.5 17.955C14.801 17.955 16.667 16.123 16.667 13.864C16.667 11.604 14.801 9.77305 12.5 9.77305ZM12.5 11.409C11.12 11.409 10 12.508 10 13.864C10 15.219 11.12 16.318 12.5 16.318C13.88 16.318 15 15.219 15 13.864C15 12.508 13.88 11.409 12.5 11.409ZM17.222 10.591C17.222 10.139 17.595 9.77305 18.056 9.77305H19.166C19.626 9.77305 20 10.139 20 10.591C19.9979 10.8099 19.909 11.0191 19.7528 11.1724C19.5966 11.3258 19.3859 11.4109 19.167 11.409H18.056C17.9475 11.4101 17.8399 11.3898 17.7393 11.3492C17.6387 11.3087 17.547 11.2487 17.4696 11.1728C17.3921 11.0968 17.3304 11.0064 17.2879 10.9065C17.2454 10.8067 17.223 10.6995 17.222 10.591Z" fill="white"/>
</svg>
