<svg xmlns="http://www.w3.org/2000/svg" width="24" height="23" viewBox="0 0 24 23" fill="none">
<path d="M1 11.5C1 8.58262 2.15893 5.78473 4.22183 3.72183C6.28473 1.65893 9.08262 0.5 12 0.5C14.9174 0.5 17.7153 1.65893 19.7782 3.72183C21.8411 5.78473 23 8.58262 23 11.5V18.4988C23 19.6648 23 20.245 22.8268 20.7111C22.689 21.0805 22.4734 21.4159 22.1947 21.6947C21.9159 21.9734 21.5805 22.189 21.2111 22.3268C20.745 22.5 20.1634 22.5 18.9988 22.5H12C9.08262 22.5 6.28473 21.3411 4.22183 19.2782C2.15893 17.2153 1 14.4174 1 11.5Z" stroke="#454545"/>
<path d="M7.875 10.125H16.125M12 15.625H16.125" stroke="#454545" stroke-linecap="round" stroke-linejoin="round"/>
</svg>