<svg xmlns="http://www.w3.org/2000/svg" width="25" height="24" viewBox="0 0 25 24" fill="none">
  <path fill-rule="evenodd" clip-rule="evenodd" d="M12.5 1C6.425 1 1.5 5.925 1.5 12C1.5 18.075 6.425 23 12.5 23C18.575 23 23.5 18.075 23.5 12C23.5 5.925 18.575 1 12.5 1ZM12 6C11.7348 6 11.4804 6.10536 11.2929 6.29289C11.1054 6.48043 11 6.73478 11 7C11 7.26522 11.1054 7.51957 11.2929 7.70711C11.4804 7.89464 11.7348 8 12 8H12.5C12.7652 8 13.0196 7.89464 13.2071 7.70711C13.3946 7.51957 13.5 7.26522 13.5 7C13.5 6.73478 13.3946 6.48043 13.2071 6.29289C13.0196 6.10536 12.7652 6 12.5 6H12ZM10.5 10C10.2348 10 9.98043 10.1054 9.79289 10.2929C9.60536 10.4804 9.5 10.7348 9.5 11C9.5 11.2652 9.60536 11.5196 9.79289 11.7071C9.98043 11.8946 10.2348 12 10.5 12H11.5V15H10.5C10.2348 15 9.98043 15.1054 9.79289 15.2929C9.60536 15.4804 9.5 15.7348 9.5 16C9.5 16.2652 9.60536 16.5196 9.79289 16.7071C9.98043 16.8946 10.2348 17 10.5 17H14.5C14.7652 17 15.0196 16.8946 15.2071 16.7071C15.3946 16.5196 15.5 16.2652 15.5 16C15.5 15.7348 15.3946 15.4804 15.2071 15.2929C15.0196 15.1054 14.7652 15 14.5 15H13.5V11C13.5 10.7348 13.3946 10.4804 13.2071 10.2929C13.0196 10.1054 12.7652 10 12.5 10H10.5Z" fill="#7A64FF"/>
</svg>