<svg xmlns="http://www.w3.org/2000/svg" width="23" height="23" viewBox="0 0 23 23" fill="none">
  <path d="M2.59129 22.5C1.99514 22.5 1.49776 22.3007 1.09918 21.9021C0.700588 21.5035 0.500863 21.0057 0.5 20.4087V3.88541C0.5 3.28926 0.699726 2.79188 1.09918 2.39329C1.49863 1.99471 1.99557 1.79498 2.59 1.79412H14.6356V3.08824H2.59129C2.35835 3.08824 2.16725 3.16286 2.018 3.31212C1.86874 3.46137 1.79412 3.65247 1.79412 3.88541V20.41C1.79412 20.6421 1.86874 20.8327 2.018 20.982C2.16725 21.1313 2.35835 21.2059 2.59129 21.2059H19.1159C19.348 21.2059 19.5386 21.1313 19.6879 20.982C19.8371 20.8327 19.9118 20.6416 19.9118 20.4087V8.36435H21.2059V20.41C21.2059 21.0053 21.0066 21.5022 20.608 21.9008C20.2094 22.2994 19.7116 22.4991 19.1146 22.5H2.59129ZM5.32835 17.9706H6.62247V10.2059H5.32835V17.9706ZM10.2059 17.9706H11.5V6.32353H10.2059V17.9706ZM15.0847 17.9706H16.3788V14.0882H15.0847V17.9706ZM18.6176 6.97059V4.38235H16.0294V3.08824H18.6176V0.5H19.9118V3.08824H22.5V4.38235H19.9118V6.97059H18.6176Z" fill="#454545"/>
</svg>