<svg xmlns="http://www.w3.org/2000/svg" width="24" height="24" viewBox="0 0 24 24" fill="none">
  <path d="M21 6.30941C20.9949 5.85805 20.8988 5.41234 20.7174 4.99899C20.536 4.58564 20.2731 4.21314 19.9444 3.90379C18.6319 2.65879 16.5019 2.70566 15.1988 4.00973L13.3875 5.83129C12.9598 5.44142 12.3982 5.23138 11.8196 5.24483C11.241 5.25827 10.6898 5.49416 10.2806 5.90348L9.43689 6.74723C9.29743 6.88654 9.18679 7.05197 9.1113 7.23407C9.03582 7.41616 8.99696 7.61135 8.99696 7.80848C8.99696 8.0056 9.03582 8.20079 9.1113 8.38289C9.18679 8.56498 9.29743 8.73042 9.43689 8.86973L9.62439 9.06285L4.84314 13.8441C4.38292 14.3007 4.04979 14.8695 3.87667 15.4943C3.70354 16.1191 3.6964 16.7782 3.85596 17.4066L3.10596 19.1325C3.00117 19.3695 2.97079 19.6327 3.01883 19.8873C3.06688 20.1419 3.19108 20.376 3.37502 20.5585C3.58736 20.7729 3.85977 20.9177 4.15622 20.974C4.45268 21.0302 4.75922 20.9952 5.03533 20.8735L6.67877 20.1563C7.29572 20.2957 7.93794 20.2763 8.54538 20.1001C9.15283 19.9238 9.70566 19.5964 10.1522 19.1485L14.9335 14.3672L15.1266 14.5604C15.4079 14.8414 15.7892 14.9993 16.1869 14.9993C16.5845 14.9993 16.9659 14.8414 17.2472 14.5604L18.091 13.7166C18.501 13.3069 18.737 12.7547 18.75 12.1752C18.7629 11.5957 18.5517 11.0336 18.1603 10.606L20.0119 8.74316C20.332 8.42494 20.5845 8.04533 20.7543 7.62712C20.9241 7.20891 21.0077 6.76071 21 6.30941ZM9.09377 18.0938C8.80515 18.383 8.44322 18.5882 8.04683 18.6873C7.65043 18.7864 7.23453 18.7757 6.84377 18.6563C6.67243 18.6035 6.48784 18.6138 6.32345 18.6854L4.62658 19.426L5.34377 17.7572C5.41818 17.5867 5.42654 17.3945 5.36721 17.2182C5.20544 16.7406 5.20874 16.2226 5.37658 15.7472H11.4375L9.09377 18.0938ZM12.9375 14.25H6.56908L10.6941 10.125L13.876 13.3125L12.9375 14.25ZM18.9544 7.68754L16.576 10.08C16.4354 10.2207 16.3565 10.4114 16.3565 10.6102C16.3565 10.809 16.4354 10.9997 16.576 11.1404L17.0344 11.5979C17.1041 11.6675 17.1594 11.7502 17.1972 11.8413C17.2349 11.9323 17.2544 12.0299 17.2544 12.1285C17.2544 12.227 17.2349 12.3246 17.1972 12.4157C17.1594 12.5067 17.1041 12.5894 17.0344 12.6591L16.1906 13.5029L10.5 7.80566L11.3438 6.96191C11.4844 6.82137 11.6751 6.74242 11.8739 6.74242C12.0728 6.74242 12.2634 6.82137 12.4041 6.96191L12.8625 7.42035C13.0031 7.56074 13.1936 7.63963 13.3922 7.63973C13.4909 7.63956 13.5885 7.61993 13.6796 7.58196C13.7706 7.544 13.8533 7.48844 13.9228 7.41848L16.261 5.06629C16.9931 4.33316 18.1828 4.29941 18.9131 4.99035C19.0956 5.16266 19.2415 5.36983 19.3424 5.59959C19.4433 5.82935 19.497 6.07702 19.5005 6.32793C19.5039 6.57884 19.4569 6.82788 19.3623 7.0603C19.2677 7.29271 19.1274 7.50377 18.9497 7.68098L18.9544 7.68754Z" fill="black" stroke="black" stroke-width="0.5"/>
</svg>
