<svg xmlns="http://www.w3.org/2000/svg" width="24" height="24" viewBox="0 0 24 24" fill="none">
  <path d="M12 1.9961C13.9466 1.99354 15.8178 2.74894 17.217 4.10226C18.6162 5.45557 19.4336 7.30048 19.496 9.2461L19.5 9.4961V13.5931L20.88 16.7491C20.963 16.9393 20.9974 17.1471 20.98 17.3539C20.9626 17.5607 20.894 17.7598 20.7804 17.9335C20.6668 18.1071 20.5117 18.2497 20.3292 18.3485C20.1467 18.4472 19.9425 18.499 19.735 18.4991L15 18.5021C15.001 19.2831 14.6974 20.0337 14.1538 20.5944C13.6101 21.1551 12.8692 21.4817 12.0886 21.5047C11.3079 21.5278 10.549 21.2455 9.97322 20.7178C9.39742 20.1902 9.05008 19.4588 9.00502 18.6791L9.00002 18.4991H4.27502C4.06773 18.4991 3.8637 18.4476 3.68129 18.3491C3.49888 18.2507 3.34381 18.1084 3.23005 17.9351C3.11629 17.7619 3.0474 17.563 3.02959 17.3565C3.01178 17.15 3.0456 16.9423 3.12802 16.7521L4.50002 13.5941V9.4961C4.50002 5.3411 7.85202 1.9961 12 1.9961ZM13.5 18.5001L10.5 18.5021C10.4999 18.8874 10.6482 19.258 10.9139 19.5369C11.1797 19.8159 11.5426 19.982 11.9274 20.0006C12.3123 20.0192 12.6896 19.8891 12.981 19.6371C13.2725 19.3851 13.4558 19.0306 13.493 18.6471L13.5 18.5001ZM12 3.4961C8.68002 3.4961 6.00002 6.1701 6.00002 9.4961V13.9061L4.65602 17.0001H19.353L18 13.9071V9.5091L17.997 9.2841C17.9446 7.72951 17.2894 6.25629 16.1702 5.17608C15.051 4.09587 13.5555 3.4934 12 3.4961Z" fill="black" stroke="black" stroke-width="0.5"/>
</svg>
