<svg width="35" height="36" viewBox="0 0 35 36" fill="none" xmlns="http://www.w3.org/2000/svg">
<circle cx="17.5" cy="18" r="17.5" fill="#7A64FF"/>
<path d="M14.2592 24.2998C14.2592 24.2998 15.3092 24.9998 17.4092 24.9998C19.5092 24.9998 20.5592 24.2998 20.5592 24.2998" stroke="black" stroke-linecap="round"/>
<ellipse cx="22.4255" cy="23.1853" rx="0.648149" ry="0.648148" fill="white"/>
<circle cx="25.2256" cy="23.1853" r="0.648149" fill="white"/>
<circle cx="23.8261" cy="24.5847" r="0.648149" fill="white"/>
<ellipse cx="8.42592" cy="23.1853" rx="0.648148" ry="0.648148" fill="white"/>
<ellipse cx="11.226" cy="23.1853" rx="0.648148" ry="0.648148" fill="white"/>
<ellipse cx="9.82652" cy="24.5847" rx="0.648148" ry="0.648149" fill="white"/>
<ellipse cx="22.918" cy="17.9093" rx="3.24074" ry="3.15" fill="white"/>
<ellipse cx="22.9187" cy="17.9092" rx="1.80041" ry="1.75" fill="black"/>
<ellipse cx="11.7176" cy="17.9093" rx="3.24074" ry="3.15" fill="white"/>
<ellipse cx="11.7169" cy="17.9092" rx="1.80041" ry="1.75" fill="black"/>
<path d="M7.77777 13.8129C7.77777 13.8129 9.52777 13.4629 11.2778 13.4629C13.0278 13.4629 14.7778 13.8129 14.7778 13.8129" stroke="black" stroke-linecap="round"/>
<path d="M19.6776 13.8129C19.6776 13.8129 21.4276 13.4629 23.1776 13.4629C24.9276 13.4629 26.6776 13.8129 26.6776 13.8129" stroke="black" stroke-linecap="round"/>
</svg>
