<svg xmlns="http://www.w3.org/2000/svg" width="24" height="24" viewBox="0 0 24 24" fill="none">
  <circle cx="12" cy="12" r="11" stroke="black" stroke-width="2"/>
  <path d="M9.77777 16.3198C9.77777 16.3198 10.4978 16.7998 11.9378 16.7998C13.3778 16.7998 14.0978 16.3198 14.0978 16.3198" stroke="black" stroke-linecap="round"/>
  <circle cx="15.3775" cy="15.5558" r="0.444444" fill="black"/>
  <circle cx="17.2975" cy="15.5558" r="0.444444" fill="black"/>
  <circle cx="16.3379" cy="16.5152" r="0.444444" fill="black"/>
  <circle cx="5.77776" cy="15.5558" r="0.444444" fill="black"/>
  <circle cx="7.6978" cy="15.5558" r="0.444444" fill="black"/>
  <circle cx="6.73815" cy="16.5152" r="0.444444" fill="black"/>
  <path d="M17.7874 11.9373C17.7874 13.0434 16.8636 13.9473 15.7151 13.9473C14.5666 13.9473 13.6429 13.0434 13.6429 11.9373C13.6429 10.8312 14.5666 9.92734 15.7151 9.92734C16.8636 9.92734 17.7874 10.8312 17.7874 11.9373Z" fill="white" stroke="black" stroke-width="0.3"/>
  <ellipse cx="15.7156" cy="11.9373" rx="1.23457" ry="1.2" fill="black"/>
  <path d="M10.1071 11.9373C10.1071 13.0434 9.18341 13.9473 8.03491 13.9473C6.8864 13.9473 5.96268 13.0434 5.96268 11.9373C5.96268 10.8312 6.8864 9.92734 8.03491 9.92734C9.18341 9.92734 10.1071 10.8312 10.1071 11.9373Z" fill="white" stroke="black" stroke-width="0.3"/>
  <ellipse cx="8.03437" cy="11.9373" rx="1.23457" ry="1.2" fill="black"/>
  <path d="M5.33331 9.12867C5.33331 9.12867 6.53331 8.88867 7.73331 8.88867C8.93331 8.88867 10.1333 9.12867 10.1333 9.12867" stroke="black" stroke-linecap="round"/>
  <path d="M13.4932 9.12867C13.4932 9.12867 14.6932 8.88867 15.8932 8.88867C17.0932 8.88867 18.2932 9.12867 18.2932 9.12867" stroke="black" stroke-linecap="round"/>
</svg>
