<svg
                      xmlns="http://www.w3.org/2000/svg"
                      width="13"
                      height="14"
                      viewBox="0 0 13 14"
                      fill="none"
                    >
                      <path
                        d="M6.5 2.35714C5.26864 2.35714 4.08771 2.8463 3.217 3.717C2.3463 4.58771 1.85714 5.76864 1.85714 7C1.85714 8.23136 2.3463 9.41229 3.217 10.283C4.08771 11.1537 5.26864 11.6429 6.5 11.6429C7.73136 11.6429 8.91229 11.1537 9.783 10.283C10.6537 9.41229 11.1429 8.23136 11.1429 7C11.1429 5.76864 10.6537 4.58771 9.783 3.717C8.91229 2.8463 7.73136 2.35714 6.5 2.35714ZM13 7C13 8.72391 12.3152 10.3772 11.0962 11.5962C9.87721 12.8152 8.22391 13.5 6.5 13.5C4.77609 13.5 3.12279 12.8152 1.90381 11.5962C0.684819 10.3772 0 8.72391 0 7C0 5.27609 0.684819 3.62279 1.90381 2.40381C3.12279 1.18482 4.77609 0.5 6.5 0.5C8.22391 0.5 9.87721 1.18482 11.0962 2.40381C12.3152 3.62279 13 5.27609 13 7Z"
                        fill="#7A64FF"
                      />
                    </svg>
