<svg
          width="40"
          height="40"
          viewBox="0 0 40 40"
          fill="none"
          xmlns="http://www.w3.org/2000/svg"
        >
          <circle cx="20" cy="20" r="20" fill="#7A64FF" />
          <path
            d="M16.2963 27.1997C16.2963 27.1997 17.4963 27.9997 19.8963 27.9997C22.2963 27.9997 23.4963 27.1997 23.4963 27.1997"
            stroke="black"
            stroke-linecap="round"
          />
          <circle cx="25.6292" cy="25.926" r="0.740741" fill="white" />
          <circle cx="28.8292" cy="25.926" r="0.740741" fill="white" />
          <circle cx="27.2299" cy="27.5257" r="0.740741" fill="white" />
          <circle cx="9.62966" cy="25.926" r="0.740741" fill="white" />
          <circle cx="12.8297" cy="25.926" r="0.740741" fill="white" />
          <circle cx="11.2304" cy="27.5257" r="0.740741" fill="white" />
          <ellipse cx="26.192" cy="19.8961" rx="3.7037" ry="3.6" fill="white" />
          <ellipse cx="26.1929" cy="19.896" rx="2.05761" ry="2" fill="black" />
          <ellipse
            cx="13.3916"
            cy="19.8961"
            rx="3.7037"
            ry="3.6"
            fill="white"
          />
          <ellipse cx="13.3907" cy="19.896" rx="2.05761" ry="2" fill="black" />
          <path
            d="M8.88892 15.2147C8.88892 15.2147 10.8889 14.8147 12.8889 14.8147C14.8889 14.8147 16.8889 15.2147 16.8889 15.2147"
            stroke="black"
            stroke-linecap="round"
          />
          <path
            d="M22.4886 15.2147C22.4886 15.2147 24.4886 14.8147 26.4886 14.8147C28.4886 14.8147 30.4886 15.2147 30.4886 15.2147"
            stroke="black"
            stroke-linecap="round"
          />
        </svg>
