<svg
                      xmlns="http://www.w3.org/2000/svg"
                      width="13"
                      height="14"
                      viewBox="0 0 13 14"
                      fill="none"
                    >
                      <path
                        d="M12.7261 11.9128C12.9005 12.0871 12.9985 12.3236 12.9985 12.5702C12.9985 12.8168 12.9005 13.0533 12.7261 13.2277C12.5517 13.402 12.3152 13.5 12.0686 13.5C11.822 13.5 11.5855 13.402 11.4111 13.2277L6.5 8.3153L1.58734 13.2261C1.41296 13.4005 1.17645 13.4985 0.929841 13.4985C0.683232 13.4985 0.446723 13.4005 0.272344 13.2261C0.0979652 13.0518 2.59845e-09 12.8153 0 12.5687C-2.59845e-09 12.3221 0.0979652 12.0856 0.272344 11.9112L5.18501 7.00039L0.273891 2.08802C0.099512 1.91365 0.00154708 1.67715 0.00154709 1.43056C0.00154709 1.18396 0.099512 0.94747 0.273891 0.773101C0.44827 0.598733 0.684779 0.500773 0.931388 0.500773C1.178 0.500773 1.41451 0.598733 1.58889 0.773101L6.5 5.68547L11.4127 0.772328C11.587 0.597959 11.8235 0.5 12.0702 0.5C12.3168 0.5 12.5533 0.597959 12.7277 0.772328C12.902 0.946696 13 1.18319 13 1.42979C13 1.67638 12.902 1.91287 12.7277 2.08724L7.81499 7.00039L12.7261 11.9128Z"
                        fill="#FF6767"
                      />
                    </svg>
